<svg width="20" height="21" viewBox="0 0 20 21" fill="none" xmlns="http://www.w3.org/2000/svg">
<path d="M0 7.5C0 5.614 -5.96046e-08 4.672 0.586 4.086C1.172 3.5 2.114 3.5 4 3.5H16C17.886 3.5 18.828 3.5 19.414 4.086C20 4.672 20 5.614 20 7.5C20 7.971 20 8.207 19.854 8.354C19.707 8.5 19.47 8.5 19 8.5H1C0.529 8.5 0.293 8.5 0.146 8.354C-8.9407e-08 8.207 0 7.97 0 7.5ZM0 16.5C0 18.386 -5.96046e-08 19.328 0.586 19.914C1.172 20.5 2.114 20.5 4 20.5H16C17.886 20.5 18.828 20.5 19.414 19.914C20 19.328 20 18.386 20 16.5V11.5C20 11.029 20 10.793 19.854 10.646C19.707 10.5 19.47 10.5 19 10.5H1C0.529 10.5 0.293 10.5 0.146 10.646C-8.9407e-08 10.793 0 11.03 0 11.5V16.5Z" fill="#0158DD"/>
<path d="M5 1.5V4.5V1.5ZM15 1.5V4.5V1.5Z" fill="#0158DD"/>
<path d="M5 1.5V4.5M15 1.5V4.5" stroke="black" stroke-width="2" stroke-linecap="round"/>
</svg>
