<svg width="25" height="24" viewBox="0 0 25 24" fill="none" xmlns="http://www.w3.org/2000/svg">
<path d="M12.5 0C5.8715 0 0.5 5.373 0.5 12C0.5 18.627 5.8715 24 12.5 24C19.1285 24 24.5 18.627 24.5 12C24.5 5.373 19.1285 0 12.5 0ZM18.0605 15.4395C18.3418 15.7208 18.4998 16.1022 18.4998 16.5C18.4998 16.8978 18.3418 17.2792 18.0605 17.5605C17.7792 17.8418 17.3978 17.9998 17 17.9998C16.6022 17.9998 16.2208 17.8418 15.9395 17.5605L12.5 14.121L9.0605 17.5605C8.92152 17.7003 8.75628 17.8112 8.57428 17.8869C8.39228 17.9626 8.19711 18.0016 8 18.0016C7.80289 18.0016 7.60772 17.9626 7.42572 17.8869C7.24372 17.8112 7.07848 17.7003 6.9395 17.5605C6.65829 17.2792 6.50032 16.8977 6.50032 16.5C6.50032 16.1023 6.65829 15.7208 6.9395 15.4395L10.379 12L6.9395 8.5605C6.65824 8.27924 6.50023 7.89776 6.50023 7.5C6.50023 7.10224 6.65824 6.72076 6.9395 6.4395C7.22076 6.15824 7.60224 6.00023 8 6.00023C8.39776 6.00023 8.77924 6.15824 9.0605 6.4395L12.5 9.879L15.9395 6.4395C16.2208 6.15824 16.6022 6.00023 17 6.00023C17.3978 6.00023 17.7792 6.15824 18.0605 6.4395C18.3418 6.72076 18.4998 7.10224 18.4998 7.5C18.4998 7.89776 18.3418 8.27924 18.0605 8.5605L14.621 12L18.0605 15.4395Z" fill="#E10000"/>
</svg>
